<?xml version="1.0" encoding="UTF-8"?>
<svg version="1.1" viewBox="0 0 2048 2048" width="20" height="20" xmlns="http://www.w3.org/2000/svg">
<path transform="translate(343,636)" d="m0 0h9l26 2 194 1h1007l86-1 38-2v35l-4 116-4 123-6 204-3 98-3 84-4 124-7 234-2 70-3 41-5 34-6 21-10 24-11 19-11 16-7 9-9 10-11 11-14 11-25 15-20 9-21 7-28 6-26 3-16 1-49 1h-787l-28-1-30-3-25-6-22-8-16-8-14-8-15-11-10-9-8-7-9-9-9-11-9-12-8-13-9-16-8-19-7-23-4-25-2-21-3-75-9-281-6-195-4-134-6-179-3-96-4-132zm674 215-11 4-11 7-8 9-5 11-1 10-1 346v296l1 136 4 13 6 10 9 6 12 5 12 2h7l11-4 10-6 8-9 4-11 2-17v-760l-2-14-5-12-7-10-8-7-13-5zm300 0-11 4-9 6-9 8-6 10-2 6-2 37-2 79-5 165-7 264-3 116-3 88v33l3 14 5 9 8 6 14 7 10 3h10l12-5 9-7 7-7 4-7 2-8 1-10 2-56 4-155 2-86 2-72 2-86 4-126 3-89 2-63 1-30-3-14-5-12-6-8-9-8-12-5-5-1zm-593 0-13 3-11 6-10 8-5 8-3 14v30l2 64 3 119 6 215 4 144 4 130 2 66 2 15 4 12 4 6 11 8 11 5 4 1h15l11-4 11-8 6-7 3-6 2-12v-66l-8-267-5-170-4-169-2-76-1-24-2-11-4-10-6-9-8-8-10-5z" fill="#EB1B0A"/>
<path transform="translate(857,85)" d="m0 0h293l19 1 16 3 15 5 16 8 12 8 11 10 6 5 10 13 8 13 8 17 4 14 2 13 1 12 2 48h359l35 2 22 3 18 6 17 9 14 10 12 11 11 14 8 13 6 13 6 19 3 19 1 15v27l-2 28-4 18-5 13-8 15-11 16-11 12-5 5-8 7-16 10-19 7-15 4-16 2-41 1h-1236l-26-1-21-3-16-6-17-9-13-11-6-5-7-8-9-11-10-16-7-16-5-17-2-11-1-11v-45l2-19 4-18 5-13 6-14 8-12 9-11 7-7 18-13 18-10 17-7 13-3 22-2h229l105-1 3-1 1-4 3-50 4-21 8-20 7-13 11-14 9-10 12-11 15-10 15-7 16-5 15-2zm35 84-51 1-9 2-6 4-7 11-5 11-4 17-2 18v12l3 7 6 2 11 1 169 1h118l58-1 14-1 6-2 1-2v-16l-2-25-4-18-4-10-6-7-16-4-42-1z" fill="#EB1B0A"/>
</svg>
